<svg xmlns="http://www.w3.org/2000/svg" width="22.621" height="22.621" viewBox="0 0 22.621 22.621"><defs><style>.a{isolation:isolate;}.b{fill:#fefefe;stroke:#000;stroke-miterlimit:10;}</style></defs><g class="a" transform="translate(875.117 84.117)"><g transform="translate(-874.617 -87.617)"><path class="b" d="M19.887,14.195a12.343,12.343,0,0,1-3.857-.614,1.754,1.754,0,0,0-1.712.36l-2.432,1.836A13.436,13.436,0,0,1,5.844,9.735l1.779-2.37A1.738,1.738,0,0,0,8.052,5.6a12.241,12.241,0,0,1-.614-3.863A1.735,1.735,0,0,0,5.7,0H1.734A1.735,1.735,0,0,0,0,1.734,19.906,19.906,0,0,0,19.887,21.621a1.735,1.735,0,0,0,1.734-1.734V15.929A1.735,1.735,0,0,0,19.887,14.195Z" transform="translate(0 4)"/></g></g></svg>