<svg xmlns="http://www.w3.org/2000/svg" width="259.527" height="60.628" viewBox="0 0 259.527 60.628"><defs><style>.a{fill:#ddd700;}.b{fill:#0f0f0f;}</style></defs><g transform="translate(0 10.188)"><path class="a" d="M278.637,417.74a11.272,11.272,0,0,0,6.744,2.683,9.655,9.655,0,0,0,9.5-8.533.21.21,0,0,0-.07-.137v-.069a17.278,17.278,0,0,1-8.533,2.2,17.754,17.754,0,0,1,0-35.507,18.217,18.217,0,0,1,9.015,2.34v-1.789h8.878v30.76a19.075,19.075,0,0,1-19.062,19.13A18.51,18.51,0,0,1,272.787,424Zm7.638-13.074a8.533,8.533,0,1,0-8.463-8.533A8.388,8.388,0,0,0,286.274,404.666Z" transform="translate(-268.521 -378.379)"/><path class="a" d="M625.524,378.379A17.754,17.754,0,1,1,607.7,396.063,17.678,17.678,0,0,1,625.524,378.379Zm0,26.08a8.361,8.361,0,1,0-8.395-8.4A8.327,8.327,0,0,0,625.524,404.459Z" transform="translate(-566.547 -378.379)"/></g><path class="a" d="M936.033,338.052a2.488,2.488,0,0,1,2.556-2.556,2.427,2.427,0,0,1,1.811.728,2.517,2.517,0,0,1,.71,1.828,2.423,2.423,0,0,1-.728,1.811,2.471,2.471,0,0,1-1.793.71,2.513,2.513,0,0,1-1.829-.71A2.419,2.419,0,0,1,936.033,338.052Zm1.1-8.734-.746-34.9h4.367l-.71,34.9Z" transform="translate(-855.041 -294.415)"/><path class="b" d="M1058.109,377.493a11.689,11.689,0,0,1,4.732.95,10.8,10.8,0,0,1,3.762,2.735,12.983,12.983,0,0,1,2.5,4.364,17.477,17.477,0,0,1,.912,5.837v21.449h-3.568V391.379a10.643,10.643,0,0,0-2.579-7.544,8.119,8.119,0,0,0-6.147-2.773,8.636,8.636,0,0,0-6.516,2.773,10.494,10.494,0,0,0-2.637,7.544v21.449H1045V391.379a10.643,10.643,0,0,0-2.579-7.544,8.12,8.12,0,0,0-6.148-2.773,8.575,8.575,0,0,0-6.5,2.773,10.545,10.545,0,0,0-2.618,7.544v21.449h-3.607V377.881h2.4l1.2,5.159h.388a10.268,10.268,0,0,1,2.133-2.793,11.769,11.769,0,0,1,2.87-1.9,9.277,9.277,0,0,1,4.112-.853,10.507,10.507,0,0,1,5.062,1.105,12.444,12.444,0,0,1,3.277,2.463,15.5,15.5,0,0,1,2.4,3.568,16.137,16.137,0,0,1,2.366-3.568,13.217,13.217,0,0,1,3.3-2.463A10.389,10.389,0,0,1,1058.109,377.493Z" transform="translate(-931.939 -367.413)"/><path class="b" d="M1491.462,395.335a19.5,19.5,0,0,1-1.28,7.156,17.892,17.892,0,0,1-3.472,5.663,15.7,15.7,0,0,1-5.159,3.723,15.926,15.926,0,0,1-12.78,0,15.615,15.615,0,0,1-5.178-3.723,17.632,17.632,0,0,1-3.452-5.644,20.942,20.942,0,0,1,0-14.312,17.632,17.632,0,0,1,3.452-5.643,15.588,15.588,0,0,1,11.578-5.062,15.342,15.342,0,0,1,6.38,1.338,15.7,15.7,0,0,1,5.159,3.724,17.954,17.954,0,0,1,3.472,5.643A19.357,19.357,0,0,1,1491.462,395.335Zm-29.012,0a15.51,15.51,0,0,0,1.028,5.721,14.582,14.582,0,0,0,2.773,4.538,12.536,12.536,0,0,0,4.053,2.987,11.451,11.451,0,0,0,4.868,1.066,11.328,11.328,0,0,0,4.848-1.066,12.609,12.609,0,0,0,4.034-2.987,14.612,14.612,0,0,0,2.773-4.538,16.438,16.438,0,0,0,0-11.442,14.374,14.374,0,0,0-2.773-4.519,12.718,12.718,0,0,0-4.053-2.967,11.553,11.553,0,0,0-9.7,0,12.7,12.7,0,0,0-4.053,2.967,14.346,14.346,0,0,0-2.773,4.519A15.514,15.514,0,0,0,1462.449,395.335Z" transform="translate(-1314.45 -367.413)"/><path class="b" d="M1750.79,380.69l11.908,29.788,11.946-29.788h3.956l-14.312,34.947h-3.181l-14.273-34.947Z" transform="translate(-1567.464 -370.222)"/><path class="b" d="M2044.388,297.208a2.718,2.718,0,0,1,2.793-2.793,2.651,2.651,0,0,1,1.978.8,2.961,2.961,0,0,1,0,4,2.646,2.646,0,0,1-1.978.8,2.718,2.718,0,0,1-2.793-2.793Zm4.383,42.622H2045.2V304.883h3.568Z" transform="translate(-1828.914 -294.415)"/><path class="b" d="M2173.448,404.1a14.292,14.292,0,0,1-1.978,3.3,15.3,15.3,0,0,1-7.156,5.023,15.865,15.865,0,0,1-5.178.8,16.382,16.382,0,0,1-6.633-1.338,15.83,15.83,0,0,1-5.294-3.723,17.273,17.273,0,0,1-3.491-5.644,20.947,20.947,0,0,1,0-14.312,17.642,17.642,0,0,1,3.452-5.643,15.588,15.588,0,0,1,11.578-5.062,15.226,15.226,0,0,1,6.148,1.261,15.63,15.63,0,0,1,5.042,3.491,16.685,16.685,0,0,1,3.413,5.294,17.281,17.281,0,0,1,1.26,6.633,7.1,7.1,0,0,1-.077,1.105q-.079.486-.156.873t-.155.776h-28.2a16.553,16.553,0,0,0,1.4,5.217,13.381,13.381,0,0,0,2.793,4.014,12.069,12.069,0,0,0,3.956,2.579,13.091,13.091,0,0,0,4.965.911,11.113,11.113,0,0,0,3.491-.524,11.471,11.471,0,0,0,2.831-1.357,10.911,10.911,0,0,0,2.114-1.823q.873-.989,1.493-1.842Zm-14.7-23.039a11.207,11.207,0,0,0-4.48.911,12.383,12.383,0,0,0-3.782,2.54,14.882,14.882,0,0,0-2.832,3.9,17.244,17.244,0,0,0-1.629,4.945h25.018a15.71,15.71,0,0,0-1.377-4.965,13.806,13.806,0,0,0-2.7-3.879,11.944,11.944,0,0,0-3.743-2.54A11.217,11.217,0,0,0,2158.748,381.061Z" transform="translate(-1915.085 -367.413)"/></svg>