<svg xmlns="http://www.w3.org/2000/svg" width="37.221" height="37.221" viewBox="0 0 37.221 37.221"><defs><style>.a{isolation:isolate;}.b{fill:#fdfdfd;stroke:#000;stroke-miterlimit:10;}</style></defs><g class="a" transform="translate(0.5 0.5)"><path class="b" d="M213.933,210.466A3.466,3.466,0,1,1,210.466,207,3.463,3.463,0,0,1,213.933,210.466Z" transform="translate(-192.356 -192.356)"/><path class="b" d="M152.039,137.8a3.447,3.447,0,0,0-1.974-1.974,5.87,5.87,0,0,0-1.931-.361c-1.1-.05-1.429-.064-4.2-.064s-3.106.007-4.2.064a5.87,5.87,0,0,0-1.931.361,3.448,3.448,0,0,0-1.974,1.974,5.871,5.871,0,0,0-.361,1.931c-.05,1.1-.064,1.422-.064,4.2s.014,3.106.064,4.2a5.686,5.686,0,0,0,.361,1.931,3.448,3.448,0,0,0,1.974,1.974,5.87,5.87,0,0,0,1.931.361c1.1.05,1.422.064,4.2.064s3.106-.007,4.2-.064a5.685,5.685,0,0,0,1.931-.361,3.434,3.434,0,0,0,1.974-1.974,5.871,5.871,0,0,0,.361-1.931c.05-1.1.064-1.429.064-4.2s-.007-3.106-.064-4.2A5.871,5.871,0,0,0,152.039,137.8Zm-8.107,11.475a5.341,5.341,0,1,1,5.341-5.341A5.341,5.341,0,0,1,143.932,149.273Zm5.553-9.642a1.245,1.245,0,1,1,1.245-1.245A1.247,1.247,0,0,1,149.485,139.631Z" transform="translate(-125.821 -125.821)"/><path class="b" d="M18.111,0A18.111,18.111,0,1,0,36.221,18.111,18.109,18.109,0,0,0,18.111,0ZM28.446,22.4a7.722,7.722,0,0,1-.481,2.526,5.3,5.3,0,0,1-3.042,3.042,7.644,7.644,0,0,1-2.526.481c-1.111.05-1.464.064-4.287.064s-3.176-.014-4.287-.064a7.722,7.722,0,0,1-2.526-.481,5.364,5.364,0,0,1-3.042-3.042A7.644,7.644,0,0,1,7.775,22.4c-.05-1.111-.064-1.464-.064-4.287s.014-3.176.064-4.287A7.722,7.722,0,0,1,8.256,11.3,5.364,5.364,0,0,1,11.3,8.256a7.683,7.683,0,0,1,2.526-.481c1.111-.05,1.464-.064,4.287-.064s3.176.014,4.287.064a7.722,7.722,0,0,1,2.526.481A5.364,5.364,0,0,1,27.965,11.3a7.683,7.683,0,0,1,.481,2.526c.05,1.111.064,1.464.064,4.287S28.5,21.287,28.446,22.4Z"/></g></svg>