<svg xmlns="http://www.w3.org/2000/svg" width="22.621" height="16.203" viewBox="0 0 22.621 16.203"><defs><style>.a{isolation:isolate;}.b{fill:#fdfdfd;stroke:#000;stroke-miterlimit:10;}</style></defs><g class="a" transform="translate(0.5 0.5)"><g transform="translate(14.873 1.085)"><path class="b" d="M358.758,101.7l-6.558,6.516,6.558,6.516a1.894,1.894,0,0,0,.19-.815v-11.4A1.894,1.894,0,0,0,358.758,101.7Z" transform="translate(-352.2 -101.7)"/></g><g transform="translate(1.085 0)"><path class="b" d="M44.336,76H26.515a1.9,1.9,0,0,0-.815.19l8.382,8.34a1.9,1.9,0,0,0,2.686,0l8.382-8.34A1.9,1.9,0,0,0,44.336,76Z" transform="translate(-25.7 -76)"/></g><g transform="translate(0 1.085)"><path class="b" d="M.19,101.7a1.9,1.9,0,0,0-.19.815v11.4a1.9,1.9,0,0,0,.19.815l6.558-6.516Z" transform="translate(0 -101.7)"/></g><g transform="translate(1.085 8.496)"><path class="b" d="M38.592,277.2l-.929.929a3.176,3.176,0,0,1-4.48,0l-.929-.929L25.7,283.716a1.9,1.9,0,0,0,.815.19H44.336a1.9,1.9,0,0,0,.815-.19Z" transform="translate(-25.7 -277.2)"/></g></g></svg>